{"title":"One Piece - 654 [HD 720p] [ENG SUBBED] [GWC].mp4","uid":10595694,"size":120697400,"categoryP":"video","categoryS":"tv_shows","magnet":"?xt=urn:btih:a387b1fc3de862b850ac43f0f6b8e090c1a6773c&amp;dn=One+Piece+-+654+%5BHD+720p%5D+%5BENG+SUBBED%5D+%5BGWC%5D.mp4&amp;tr=udp%3A%2F%2Ftracker.openbittorrent.com%3A80&amp;tr=udp%3A%2F%2Fopen.demonii.com%3A1337&amp;tr=udp%3A%2F%2Ftracker.coppersurfer.tk%3A6969&amp;tr=udp%3A%2F%2Fexodus.desync.com%3A6969","seeders":1,"leechers":0,"uploader":"canc232","files":1,"time":1405816263,"description":"One Piece - 654 [HD 720p] [ENG SUBBED] [GWC] \n\n\n\nSTORYLINE :\nIt was a time when pirates ruled the seas. Several bands of pirates were battling over the great hidden treasure, One Piece, which was left by the now legendary pirate captain, Gold Roger. There was a young boy who admired the pirates, his name was Monkey D. Luffy. One day, he mistakenly eats the devil's fruit and turns himself into a rubber human being.\n\nTen years have passed since that incident. Luffy sets out to sail all alone. He sets out to become a great pirate captain and that's when his great adventure begins. &quot;I'm going to be the Pirate King! I'm going to get One Piece!&quot;.\n\n\n\nTHUMBNAIL IMAGE : &lt;a href=&quot;\nhttp://i.imgur.com/sA4YvrU.jpg&quot; rel=&quot;nofollow&quot; target=&quot;_NEW&quot;&gt;\nhttp://i.imgur.com/sA4YvrU.jpg&lt;/a&gt;\n\n\n\nMEDIA INFO :\nGeneral \nFormat : MPEG-4 \nFormat profile : Base Media \nFile size : 115 MiB \nDuration : 20mn 39s \nOverall bit rate mode : Variable \nOverall bit rate : 779 Kbps \n\nVideo \nFormat : AVC \nFormat profile : &lt;a class=&quot;__cf_email__&quot; href=&quot;/cdn-cgi/l/email-protection&quot; data-cfemail=&quot;652d0c020d2529514b55&quot;&gt;[email&amp;#160;protected]&lt;/a&gt;&lt;script cf-hash='f9e31' type=&quot;text/javascript&quot;&gt;\n/* &lt;![CDATA[ */!function(){try{var t=&quot;currentScript&quot;in document?document.currentScript:function(){for(var t=document.getElementsByTagName(&quot;script&quot;),e=t.length;e--;)if(t[e].getAttribute(&quot;cf-hash&quot;))return t[e]}();if(t&amp;&amp;t.previousSibling){var e,r,n,i,c=t.previousSibling,a=c.getAttribute(&quot;data-cfemail&quot;);if(a){for(e=&quot;&quot;,r=parseInt(a.substr(0,2),16),n=2;a.length-n;n+=2)i=parseInt(a.substr(n,2),16)^r,e+=String.fromCharCode(i);e=document.createTextNode(e),c.parentNode.replaceChild(e,c)}}}catch(u){}}();/* ]]&gt; */&lt;/script&gt; \nFormat settings, CABAC : Yes \nFormat settings, ReFrames : 6 frames \nDuration : 20mn 39s \nBit rate : 712 Kbps \nMaximum bit rate : 3 846 Kbps \nWidth : 1 280 pixels \nHeight : 720 pixels \nDisplay aspect ratio : 16:9 \nFrame rate : 29.970 fps \nStream size : 105 MiB (91%) \nTitle : One Piece - 654 [HD 720p] [ENG SUBBED] [GWC] \n\nAudio \nFormat : AAC \nFormat profile : HE-AAC / LC \nDuration : 20mn 39s \nBit rate mode : Variable \nChannel(s) : 2 channels \nSampling rate : 44.1 KHz / 22.05 KHz \nStream size : 9.42 MiB (8%) \nLanguage : Japanese \n\nText \nFormat : Timed Text \nTitle : [GWC] \nLanguage : English ","torrent":{"xt":"urn:btih:a387b1fc3de862b850ac43f0f6b8e090c1a6773c","amp;dn":"One+Piece+-+654+%5BHD+720p%5D+%5BENG+SUBBED%5D+%5BGWC%5D.mp4","amp;tr":["udp%3A%2F%2Ftracker.openbittorrent.com%3A80","udp%3A%2F%2Fopen.demonii.com%3A1337","udp%3A%2F%2Ftracker.coppersurfer.tk%3A6969","udp%3A%2F%2Fexodus.desync.com%3A6969"],"infoHash":"a387b1fc3de862b850ac43f0f6b8e090c1a6773c","infoHashBuffer":{"type":"Buffer","data":[163,135,177,252,61,232,98,184,80,172,67,240,246,184,224,144,193,166,119,60]},"announce":[],"urlList":[]}}